<?xml version="1.0" standalone="no"?><svg xmlns="http://www.w3.org/2000/svg" viewBox="0 0 1440 320"><path fill="#0099ff" fill-opacity="1" d="M0,160L6.9,149.3C13.7,139,27,117,41,112C54.9,107,69,117,82,122.7C96,128,110,128,123,128C137.1,128,151,128,165,154.7C178.3,181,192,235,206,234.7C219.4,235,233,181,247,149.3C260.6,117,274,107,288,122.7C301.7,139,315,181,329,176C342.9,171,357,117,370,122.7C384,128,398,192,411,197.3C425.1,203,439,149,453,122.7C466.3,96,480,96,494,90.7C507.4,85,521,75,535,90.7C548.6,107,562,149,576,154.7C589.7,160,603,128,617,133.3C630.9,139,645,181,658,213.3C672,245,686,267,699,245.3C713.1,224,727,160,741,160C754.3,160,768,224,782,234.7C795.4,245,809,203,823,160C836.6,117,850,75,864,53.3C877.7,32,891,32,905,37.3C918.9,43,933,53,946,69.3C960,85,974,107,987,133.3C1001.1,160,1015,192,1029,170.7C1042.3,149,1056,75,1070,42.7C1083.4,11,1097,21,1111,64C1124.6,107,1138,181,1152,224C1165.7,267,1179,277,1193,240C1206.9,203,1221,117,1234,74.7C1248,32,1262,32,1275,37.3C1289.1,43,1303,53,1317,96C1330.3,139,1344,213,1358,218.7C1371.4,224,1385,160,1399,165.3C1412.6,171,1426,245,1433,282.7L1440,320L1440,0L1433.1,0C1426.3,0,1413,0,1399,0C1385.1,0,1371,0,1358,0C1344,0,1330,0,1317,0C1302.9,0,1289,0,1275,0C1261.7,0,1248,0,1234,0C1220.6,0,1207,0,1193,0C1179.4,0,1166,0,1152,0C1138.3,0,1125,0,1111,0C1097.1,0,1083,0,1070,0C1056,0,1042,0,1029,0C1014.9,0,1001,0,987,0C973.7,0,960,0,946,0C932.6,0,919,0,905,0C891.4,0,878,0,864,0C850.3,0,837,0,823,0C809.1,0,795,0,782,0C768,0,754,0,741,0C726.9,0,713,0,699,0C685.7,0,672,0,658,0C644.6,0,631,0,617,0C603.4,0,590,0,576,0C562.3,0,549,0,535,0C521.1,0,507,0,494,0C480,0,466,0,453,0C438.9,0,425,0,411,0C397.7,0,384,0,370,0C356.6,0,343,0,329,0C315.4,0,302,0,288,0C274.3,0,261,0,247,0C233.1,0,219,0,206,0C192,0,178,0,165,0C150.9,0,137,0,123,0C109.7,0,96,0,82,0C68.6,0,55,0,41,0C27.4,0,14,0,7,0L0,0Z"></path></svg>